<mxfile host="app.diagrams.net" agent="Mozilla/5.0 (Windows NT 10.0; Win64; x64) AppleWebKit/537.36 (KHTML, like Gecko) Chrome/132.0.0.0 Safari/537.36 OPR/117.0.0.0" version="26.1.1">
  <diagram name="PÃ¡gina-1" id="dH3Q5yXq1cAT04K-CXWL">
    <mxGraphModel dx="960" dy="532" grid="1" gridSize="10" guides="1" tooltips="1" connect="1" arrows="1" fold="1" page="1" pageScale="1" pageWidth="1169" pageHeight="827" background="none" math="0" shadow="0">
      <root>
        <mxCell id="0" />
        <mxCell id="1" parent="0" />
        <mxCell id="eiS7LQ03i3qgGVyGZ1QI-1" value="Actor" style="shape=umlActor;verticalLabelPosition=bottom;verticalAlign=top;html=1;shadow=0;gradientColor=none;fillColor=default;" vertex="1" parent="1">
          <mxGeometry x="50" y="150" width="30" height="60" as="geometry" />
        </mxCell>
        <mxCell id="eiS7LQ03i3qgGVyGZ1QI-3" value="Sem os pipes" style="text;align=center;fontStyle=1;verticalAlign=middle;spacingLeft=3;spacingRight=3;rotatable=0;points=[[0,0.5],[1,0.5]];portConstraint=eastwest;html=1;rounded=0;glass=0;shadow=0;fontSize=24;" vertex="1" parent="1">
          <mxGeometry x="130" y="90" width="190" height="26" as="geometry" />
        </mxCell>
        <mxCell id="eiS7LQ03i3qgGVyGZ1QI-4" value="date" style="html=1;verticalAlign=bottom;startArrow=oval;startFill=1;endArrow=block;startSize=8;curved=0;rounded=0;entryX=0;entryY=0.5;entryDx=0;entryDy=0;" edge="1" parent="1" source="eiS7LQ03i3qgGVyGZ1QI-1" target="eiS7LQ03i3qgGVyGZ1QI-5">
          <mxGeometry width="60" relative="1" as="geometry">
            <mxPoint x="470" y="310" as="sourcePoint" />
            <mxPoint x="230" y="180" as="targetPoint" />
          </mxGeometry>
        </mxCell>
        <mxCell id="eiS7LQ03i3qgGVyGZ1QI-5" value="Aplication" style="html=1;whiteSpace=wrap;" vertex="1" parent="1">
          <mxGeometry x="280" y="155" width="110" height="50" as="geometry" />
        </mxCell>
        <mxCell id="eiS7LQ03i3qgGVyGZ1QI-6" value="Response" style="html=1;verticalAlign=bottom;startArrow=oval;startFill=1;endArrow=block;startSize=8;curved=0;rounded=0;entryX=0.667;entryY=1.333;entryDx=0;entryDy=0;exitX=0.5;exitY=1;exitDx=0;exitDy=0;entryPerimeter=0;" edge="1" parent="1" source="eiS7LQ03i3qgGVyGZ1QI-5" target="eiS7LQ03i3qgGVyGZ1QI-1">
          <mxGeometry x="0.1162" y="-10" width="60" relative="1" as="geometry">
            <mxPoint x="80" y="180" as="sourcePoint" />
            <mxPoint x="250" y="180" as="targetPoint" />
            <Array as="points">
              <mxPoint x="335" y="300" />
              <mxPoint x="70" y="300" />
            </Array>
            <mxPoint as="offset" />
          </mxGeometry>
        </mxCell>
        <mxCell id="eiS7LQ03i3qgGVyGZ1QI-7" value="Com os pipes" style="text;align=center;fontStyle=1;verticalAlign=middle;spacingLeft=3;spacingRight=3;rotatable=0;points=[[0,0.5],[1,0.5]];portConstraint=eastwest;html=1;rounded=0;glass=0;shadow=0;fontSize=24;" vertex="1" parent="1">
          <mxGeometry x="700" y="90" width="190" height="26" as="geometry" />
        </mxCell>
        <mxCell id="eiS7LQ03i3qgGVyGZ1QI-8" value="Actor" style="shape=umlActor;verticalLabelPosition=bottom;verticalAlign=top;html=1;" vertex="1" parent="1">
          <mxGeometry x="530" y="150" width="30" height="60" as="geometry" />
        </mxCell>
        <mxCell id="eiS7LQ03i3qgGVyGZ1QI-12" value="Aplication" style="html=1;whiteSpace=wrap;" vertex="1" parent="1">
          <mxGeometry x="850" y="430" width="110" height="50" as="geometry" />
        </mxCell>
        <mxCell id="eiS7LQ03i3qgGVyGZ1QI-13" value="Dados" style="html=1;verticalAlign=bottom;startArrow=circle;startFill=1;endArrow=open;startSize=6;endSize=8;curved=0;rounded=0;entryX=-0.005;entryY=0.497;entryDx=0;entryDy=0;entryPerimeter=0;" edge="1" parent="1" source="eiS7LQ03i3qgGVyGZ1QI-8" target="eiS7LQ03i3qgGVyGZ1QI-16">
          <mxGeometry width="80" relative="1" as="geometry">
            <mxPoint x="750" y="240" as="sourcePoint" />
            <mxPoint x="870" y="183" as="targetPoint" />
          </mxGeometry>
        </mxCell>
        <mxCell id="eiS7LQ03i3qgGVyGZ1QI-16" value="Validation" style="ellipse;shape=umlControl;whiteSpace=wrap;html=1;" vertex="1" parent="1">
          <mxGeometry x="870" y="140" width="70" height="80" as="geometry" />
        </mxCell>
        <mxCell id="eiS7LQ03i3qgGVyGZ1QI-22" value="valid" style="whiteSpace=wrap;html=1;align=center;verticalAlign=middle;treeFolding=1;treeMoving=1;newEdgeStyle={&quot;edgeStyle&quot;:&quot;elbowEdgeStyle&quot;,&quot;startArrow&quot;:&quot;none&quot;,&quot;endArrow&quot;:&quot;none&quot;};" vertex="1" parent="1">
          <mxGeometry x="710" y="260" width="100" height="60" as="geometry" />
        </mxCell>
        <mxCell id="eiS7LQ03i3qgGVyGZ1QI-23" value="" style="edgeStyle=elbowEdgeStyle;elbow=vertical;sourcePerimeterSpacing=0;targetPerimeterSpacing=0;startArrow=none;endArrow=none;rounded=0;curved=0;exitX=0.507;exitY=1.014;exitDx=0;exitDy=0;exitPerimeter=0;" edge="1" target="eiS7LQ03i3qgGVyGZ1QI-22" parent="1" source="eiS7LQ03i3qgGVyGZ1QI-16">
          <mxGeometry relative="1" as="geometry">
            <mxPoint x="720" y="210" as="sourcePoint" />
          </mxGeometry>
        </mxCell>
        <mxCell id="eiS7LQ03i3qgGVyGZ1QI-26" value="" style="ellipse;whiteSpace=wrap;html=1;align=center;aspect=fixed;fillColor=none;strokeColor=none;resizable=0;perimeter=centerPerimeter;rotatable=0;allowArrows=0;points=[];outlineConnect=1;" vertex="1" parent="1">
          <mxGeometry x="770" y="330" width="10" height="10" as="geometry" />
        </mxCell>
        <mxCell id="eiS7LQ03i3qgGVyGZ1QI-29" value="invalid" style="whiteSpace=wrap;html=1;align=center;verticalAlign=middle;treeFolding=1;treeMoving=1;newEdgeStyle={&quot;edgeStyle&quot;:&quot;elbowEdgeStyle&quot;,&quot;startArrow&quot;:&quot;none&quot;,&quot;endArrow&quot;:&quot;none&quot;};" vertex="1" parent="1">
          <mxGeometry x="990" y="260" width="100" height="60" as="geometry" />
        </mxCell>
        <mxCell id="eiS7LQ03i3qgGVyGZ1QI-30" value="" style="edgeStyle=elbowEdgeStyle;elbow=vertical;sourcePerimeterSpacing=0;targetPerimeterSpacing=0;startArrow=none;endArrow=none;rounded=0;curved=0;exitX=0.498;exitY=1.031;exitDx=0;exitDy=0;exitPerimeter=0;" edge="1" target="eiS7LQ03i3qgGVyGZ1QI-29" parent="1" source="eiS7LQ03i3qgGVyGZ1QI-16">
          <mxGeometry relative="1" as="geometry">
            <mxPoint x="720" y="280" as="sourcePoint" />
          </mxGeometry>
        </mxCell>
        <mxCell id="eiS7LQ03i3qgGVyGZ1QI-31" value="Dados" style="endArrow=open;endSize=12;dashed=1;html=1;rounded=0;entryX=-0.022;entryY=0.594;entryDx=0;entryDy=0;entryPerimeter=0;exitX=0.5;exitY=1;exitDx=0;exitDy=0;" edge="1" parent="1" source="eiS7LQ03i3qgGVyGZ1QI-22" target="eiS7LQ03i3qgGVyGZ1QI-12">
          <mxGeometry x="-0.2091" width="160" relative="1" as="geometry">
            <mxPoint x="700" y="330" as="sourcePoint" />
            <mxPoint x="860" y="330" as="targetPoint" />
            <Array as="points">
              <mxPoint x="760" y="460" />
            </Array>
            <mxPoint as="offset" />
          </mxGeometry>
        </mxCell>
        <mxCell id="eiS7LQ03i3qgGVyGZ1QI-33" value="Error" style="endArrow=open;endSize=12;dashed=1;html=1;rounded=0;entryX=1;entryY=0.5;entryDx=0;entryDy=0;exitX=0.5;exitY=1;exitDx=0;exitDy=0;" edge="1" parent="1" source="eiS7LQ03i3qgGVyGZ1QI-29" target="eiS7LQ03i3qgGVyGZ1QI-12">
          <mxGeometry x="-0.2091" width="160" relative="1" as="geometry">
            <mxPoint x="700" y="330" as="sourcePoint" />
            <mxPoint x="860" y="330" as="targetPoint" />
            <Array as="points">
              <mxPoint x="1040" y="455" />
            </Array>
            <mxPoint as="offset" />
          </mxGeometry>
        </mxCell>
        <mxCell id="eiS7LQ03i3qgGVyGZ1QI-35" value="Response" style="html=1;verticalAlign=bottom;startArrow=oval;startFill=1;endArrow=block;startSize=8;curved=0;rounded=0;exitX=0.5;exitY=1;exitDx=0;exitDy=0;" edge="1" parent="1" source="eiS7LQ03i3qgGVyGZ1QI-12" target="eiS7LQ03i3qgGVyGZ1QI-8">
          <mxGeometry x="-0.342" width="60" relative="1" as="geometry">
            <mxPoint x="750" y="400" as="sourcePoint" />
            <mxPoint x="810" y="400" as="targetPoint" />
            <Array as="points">
              <mxPoint x="905" y="540" />
              <mxPoint x="550" y="540" />
            </Array>
            <mxPoint as="offset" />
          </mxGeometry>
        </mxCell>
      </root>
    </mxGraphModel>
  </diagram>
</mxfile>
